<!DOCTYPE svg PUBLIC "-//W3C//DTD SVG 20010904//EN" "http://www.w3.org/TR/2001/REC-SVG-20010904/DTD/svg10.dtd">
<svg version="1.0" xmlns="http://www.w3.org/2000/svg" width="180px" height="180px" viewBox="0 0 1800 1800" preserveAspectRatio="xMidYMid meet">
<g id="layer101" fill="#000000" stroke="none">
 <path d="M700 1400 l0 -300 -100 0 -100 0 0 -300 0 -300 100 0 100 0 0 -200 0 -200 200 0 200 0 0 95 0 95 110 0 110 0 0 -130 0 -130 65 0 65 0 0 130 0 130 130 0 130 0 0 65 0 65 -130 0 -130 0 0 130 0 130 -65 0 -65 0 0 -130 0 -130 -110 0 -110 0 0 40 0 40 100 0 100 0 0 300 0 300 -100 0 -100 0 0 300 0 300 -200 0 -200 0 0 -300z"/>
 </g>
<g id="layer102" fill="#555d66" stroke="none">
 <path d="M700 1400 l0 -300 -100 0 -100 0 0 -300 0 -300 100 0 100 0 0 -200 0 -200 200 0 200 0 0 95 c0 88 -1 95 -20 95 -18 0 -20 7 -20 65 0 58 2 65 20 65 17 0 20 7 20 40 l0 40 100 0 100 0 0 300 0 300 -100 0 -100 0 0 300 0 300 -200 0 -200 0 0 -300z"/>
 </g>

</svg>